<?xml version="1.0" encoding="UTF-8"?>
<svg xmlns="http://www.w3.org/2000/svg" xmlns:xlink="http://www.w3.org/1999/xlink" width="194pt" height="194pt" viewBox="0 0 194 194" version="1.1">
<g id="surface1">
<path style=" stroke:none;fill-rule:evenodd;fill:rgb(100%,100%,100%);fill-opacity:1;" d="M 0.257813 0.675781 L 193.015625 0.675781 L 193.015625 193.433594 L 0.257813 193.433594 L 0.257813 0.675781 "/>
<path style=" stroke:none;fill-rule:evenodd;fill:rgb(13.699341%,12.199402%,12.5%);fill-opacity:1;" d="M 8.761719 176.273438 Z M 9.03125 17.835938 L 9.03125 81.425781 L 96.785156 176.039063 L 184.511719 81.425781 L 184.511719 17.835938 L 9.03125 17.835938 "/>
<path style=" stroke:none;fill-rule:evenodd;fill:rgb(100%,100%,100%);fill-opacity:1;" d="M 178.710938 23.617188 C 178.710938 28.734375 178.710938 77.078125 178.710938 79.152344 C 177.230469 80.742188 100.753906 163.21875 96.785156 167.542969 C 92.789063 163.21875 16.292969 80.742188 14.816406 79.152344 C 14.816406 77.078125 14.816406 28.734375 14.816406 23.617188 C 20.308594 23.617188 173.214844 23.617188 178.710938 23.617188 "/>
<path style=" stroke:none;fill-rule:evenodd;fill:rgb(93.299866%,19.198608%,14.099121%);fill-opacity:1;" d="M 22.714844 79.152344 L 87.628906 149.140625 L 87.628906 79.152344 Z M 22.714844 79.152344 "/>
<path style=" stroke:none;fill-rule:evenodd;fill:rgb(13.699341%,12.199402%,12.5%);fill-opacity:1;" d="M 172.929688 73.371094 L 20.59375 73.371094 L 20.59375 29.398438 L 172.929688 29.398438 L 172.929688 73.371094 "/>
<path style=" stroke:none;fill-rule:evenodd;fill:rgb(13.699341%,12.199402%,12.5%);fill-opacity:1;" d="M 170.832031 79.152344 L 105.917969 149.140625 L 105.917969 79.152344 Z M 170.832031 79.152344 "/>
<path style=" stroke:none;fill-rule:evenodd;fill:rgb(100%,100%,100%);fill-opacity:1;" d="M 126.636719 39.039063 L 103.511719 39.039063 L 103.511719 63.730469 L 108.324219 63.730469 L 108.324219 52.828125 L 120.855469 52.828125 L 120.855469 49.941406 L 108.324219 49.941406 L 108.324219 41.929688 L 126.636719 41.929688 L 126.636719 39.039063 "/>
<path style=" stroke:none;fill-rule:evenodd;fill:rgb(100%,100%,100%);fill-opacity:1;" d="M 35.070313 42.855469 C 35.070313 42.351563 35.488281 41.929688 35.972656 41.929688 L 53.382813 41.929688 L 53.382813 39.039063 L 31.695313 39.039063 C 30.898438 39.039063 30.238281 39.679688 30.238281 40.496094 L 30.238281 51.375 C 30.238281 52.167969 30.898438 52.828125 31.695313 52.828125 L 47.644531 52.828125 C 48.152344 52.828125 48.574219 53.226563 48.574219 53.734375 L 48.574219 59.914063 C 48.574219 60.421875 48.152344 60.839844 47.644531 60.839844 L 30.238281 60.839844 L 30.238281 63.730469 L 51.949219 63.730469 C 52.742188 63.730469 53.382813 63.066406 53.382813 62.273438 L 53.382813 51.375 C 53.382813 50.578125 52.742188 49.941406 51.949219 49.941406 L 35.996094 49.941406 C 35.488281 49.941406 35.070313 49.519531 35.070313 49.015625 L 35.070313 42.855469 "/>
<path style=" stroke:none;fill-rule:evenodd;fill:rgb(100%,100%,100%);fill-opacity:1;" d="M 90.03125 51.375 C 90.03125 52.167969 89.371094 52.828125 88.574219 52.828125 L 71.71875 52.828125 L 71.71875 63.730469 L 66.886719 63.730469 L 66.886719 39.039063 L 88.574219 39.039063 C 89.371094 39.039063 90.03125 39.703125 90.03125 40.496094 Z M 71.71875 49.941406 L 84.296875 49.941406 C 84.800781 49.941406 85.199219 49.519531 85.199219 49.015625 L 85.199219 42.855469 C 85.199219 42.351563 84.800781 41.929688 84.296875 41.929688 L 71.71875 41.929688 L 71.71875 49.941406 "/>
<path style=" stroke:none;fill-rule:evenodd;fill:rgb(100%,100%,100%);fill-opacity:1;" d="M 158.476563 57.925781 L 158.476563 59.914063 C 158.476563 60.421875 158.058594 60.839844 157.550781 60.839844 L 145.878906 60.839844 C 145.390625 60.839844 144.972656 60.421875 144.972656 59.914063 L 144.972656 42.855469 C 144.972656 42.351563 145.371094 41.929688 145.878906 41.929688 L 157.550781 41.929688 C 158.058594 41.929688 158.476563 42.351563 158.476563 42.855469 L 158.476563 44.820313 L 163.285156 44.820313 L 163.285156 40.496094 C 163.285156 39.679688 162.644531 39.039063 161.851563 39.039063 L 141.597656 39.039063 C 140.800781 39.039063 140.140625 39.679688 140.140625 40.496094 L 140.140625 62.273438 C 140.140625 63.066406 140.800781 63.730469 141.597656 63.730469 L 161.851563 63.730469 C 162.644531 63.730469 163.285156 63.066406 163.285156 62.273438 L 163.285156 57.925781 L 158.476563 57.925781 "/>
</g>
</svg>
